<?xml version="1.0" standalone="no"?>
<!DOCTYPE svg PUBLIC "-//W3C//DTD SVG 20010904//EN"
 "http://www.w3.org/TR/2001/REC-SVG-20010904/DTD/svg10.dtd">
<svg version="1.0" xmlns="http://www.w3.org/2000/svg"
 width="673.000000pt" height="674.000000pt" viewBox="0 0 673.000000 674.000000"
 preserveAspectRatio="xMidYMid meet">

<g transform="translate(0.000000,674.000000) scale(0.100000,-0.100000)"
fill="#000000" stroke="none">
<path d="M0 3375 l0 -3365 3365 0 3365 0 0 3365 0 3365 -3365 0 -3365 0 0
-3365z m1958 1109 l22 -15 0 -451 c0 -406 -2 -453 -17 -470 -15 -17 -43 -18
-468 -18 -528 0 -493 -8 -481 103 25 243 164 496 359 652 100 80 251 156 367
184 141 34 187 37 218 15z m433 -23 c381 -102 672 -442 714 -833 6 -59 5 -68
-14 -87 -21 -21 -27 -21 -464 -21 -384 0 -445 2 -465 16 l-22 15 0 451 c0 531
-8 494 105 485 39 -3 104 -15 146 -26z m675 -1085 c18 -14 19 -32 22 -448 1
-238 0 -443 -3 -455 -13 -54 0 -53 -485 -53 l-449 0 -20 26 c-24 31 -21 83 14
219 77 299 283 535 574 656 135 56 307 83 347 55z m-1129 -7 c15 -5 31 -16 35
-22 4 -7 8 -213 8 -459 0 -439 0 -448 -21 -469 -18 -18 -28 -19 -77 -14 -293
34 -544 186 -713 432 -76 109 -139 285 -154 426 -8 72 -1 91 40 107 31 13 848
12 882 -1z m1873 -169 l0 -50 -95 0 -95 0 -2 -317 -3 -318 -57 -3 -58 -3 0
321 0 320 -95 0 -95 0 0 50 0 50 250 0 250 0 0 -50z m400 0 l0 -50 -105 0
-105 0 0 -100 0 -100 85 0 85 0 0 -50 0 -49 -82 -3 -83 -3 -3 -112 -3 -112
123 -3 123 -3 0 -50 0 -50 -177 -3 -178 -2 0 370 0 370 160 0 160 0 0 -50z
m395 -208 l129 -258 128 258 c70 142 131 258 136 258 6 0 163 -706 162 -732 0
-5 -24 -8 -54 -8 -43 0 -56 4 -60 18 -3 9 -24 105 -46 212 -23 107 -44 197
-46 199 -2 2 -9 -11 -16 -30 -19 -54 -196 -394 -204 -393 -5 1 -56 96 -114
212 -58 116 -107 211 -110 211 -3 1 -19 -65 -34 -146 -16 -82 -35 -178 -43
-215 l-15 -68 -54 0 c-41 0 -54 4 -54 15 0 15 137 690 145 713 2 6 8 12 12 12
5 0 66 -116 138 -258z m942 243 c98 -29 151 -121 139 -239 -12 -120 -81 -187
-211 -206 -39 -5 -75 -10 -82 -10 -9 0 -13 -37 -15 -132 l-3 -133 -57 -3 -58
-3 0 371 0 370 118 0 c76 0 136 -5 169 -15z"/>
<path d="M5380 3019 l0 -131 60 4 c80 6 119 41 128 113 10 89 -45 145 -142
145 l-46 0 0 -131z"/>
</g>
</svg>
